# xmcd
#
# Track frame offsets: 
#        150
#        24635
#        41869
#        59108
#        81067
#        100466
#        117778
#        136241
#        160537
#        185710
#
# Disc length: 2804 seconds
#
# Revision: 0
# Processed by: cddbd v1.5.2PL0 Copyright (c) Steve Scherf et al.
# Submitted via: ExactAudioCopy v1.0b3
#
DISCID=880af20a
DTITLE=Truong Vu, Huong Lan - Thuong Tinh Nhan
DYEAR=1998
DGENRE=
TTITLE0=Truong Vu - Tinh nhu may khoi
TTITLE1=Truong Vu - Dua em vao ha
TTITLE2=Huong Lan - Bong hong Viet Nam
TTITLE3=Truong Vu - No
TTITLE4=Truong Vu - Thuong tinh nhan
TTITLE5=Truong Vu - Con duong xua em di
TTITLE6=Truong Vu - La thu cuoi cung
TTITLE7=Huong Lan - Linh hon tuong da
TTITLE8=Truong Vu - Cay dan bo quen
TTITLE9=Truong Vu - Con duong mang ten em
EXTD=
EXTT0=
EXTT1=
EXTT2=
EXTT3=
EXTT4=
EXTT5=
EXTT6=
EXTT7=
EXTT8=
EXTT9=
PLAYORDER=
